<svg xmlns="http://www.w3.org/2000/svg" width="32" height="32" viewBox="0 0 32 32"><g transform="translate(2579.513 -700.198)"><path fill="#faa41a" stroke="#faa41a" stroke-linecap="round" stroke-linejoin="round" d="m -2562.2238,711.36036 c -5.5665,0.67601 -5.5812,3.25128 -4.9063,6.0625 l 2.875,2.5625 c 4.9048,1.96892 6.1832,-1.95501 7.1563,-6.375 z"/><path fill="#faa41a" stroke="#383747" stroke-linecap="round" stroke-linejoin="round" d="m -2556.9711,713.8754 c 2.0163,0.036 3.6304,2.3682 3.6052,5.2102 -0.024,2.7475 -1.5379,4.9825 -3.4859,5.0768 -0.3193,0 -11.0594,0.011 -11.4034,0.017 -1.7064,0.043 -3.6021,0.081 -4.5837,-1.0112 -1.024,-1.1389 -1.0325,-3.7971 -0.8595,-5.4389 0.3127,-2.9673 3.3307,-5.5977 6.4432,-6.4326 0.2805,-0.076 2.0145,-0.6184 4.4277,-0.105 m -1.4568,8.6281 c 0.6835,0.5216 1.52,0.8043 2.3805,0.8043 1.9401,0 3.551,-1.4073 3.8644,-3.2552 0.036,-0.2138 1.2985,-8.3178 4.6407,-7.874 0.6094,0.081 1.2814,0.2252 1.7385,-0.185 0.5771,-0.5177 0.6245,-1.4045 0.106,-1.9806 -0.5186,-0.5763 -1.4068,-0.6236 -1.9844,-0.1053 0.2499,-0.2494 0.5223,-0.6979 0.5357,-1.0512 0.029,-0.774 -0.5755,-1.4264 -1.3508,-1.4544 -0.6641,-0.025 -1.3495,0.3942 -1.4072,1.0274 -0.5149,5.6535 -6.6717,4.8873 -9.083,6.0807 -2.4113,1.1933 -3.4365,3.1284 -2.315,5.3951"/><path fill="none" stroke="#383747" stroke-linecap="round" stroke-linejoin="round" d="m -2575.8276,725.7324 24.5568,0 c -0.015,0.9575 -0.1981,1.7804 -1.2048,1.9457 l -21.8637,0 c -1.4834,-0.2542 -1.2474,-1.1952 -1.4883,-1.9457 z"/><path fill="none" stroke="#fff" stroke-linecap="round" stroke-linejoin="round" d="m -2565.6672,715.67551 a 2.0108349,2.0108349 0 0 1 0.5799,-1.43816 2.0108349,2.0108349 0 0 1 1.4308,-0.59792"/></g></svg>